<?xml version="1.0" encoding="iso-8859-1"?>
<!-- Generator: Adobe Illustrator 19.0.0, SVG Export Plug-In . SVG Version: 6.00 Build 0)  -->
<svg version="1.1" id="Capa_1" xmlns="http://www.w3.org/2000/svg" xmlns:xlink="http://www.w3.org/1999/xlink" x="0px" y="0px"
	 viewBox="0 0 512 512" style="enable-background:new 0 0 512 512;" xml:space="preserve">
<path style="fill:#647892;" d="M247.212,0.374c-74.177,4.683-131.507,67.125-131.507,141.45c0,21.405,0,163.377,0,181.832
	c0,6.188,5.016,11.204,11.204,11.204h52.046h35.619h83.421h90.929c4.385,0,7.94-3.555,7.94-7.94c0-64.379,0-119.418,0-186.253
	C396.863,60.148,328.818-4.778,247.212,0.374z"/>
<path style="fill:#4D6682;" d="M185.737,323.656V230.88v-7.248c0-8.632,0-73.235,0-81.808c0-65.386,44.373-121.568,105.549-137.326
	c-89.471-23.012-175.581,45.216-175.581,137.326c0,21.405,0,163.377,0,181.832c0,6.188,5.016,11.204,11.204,11.204h52.046h17.986
	C190.753,334.86,185.737,329.844,185.737,323.656z"/>
<g>
	<path style="fill:#3997EE;" d="M436.129,485.997c-5.938-29.819-12.977-65.175-14.675-73.703
		c-4.412-22.1-20.649-31.086-29.595-34.423c-0.108-0.032-6.125-1.807-6.017-1.775h0.001c-0.177-0.044-28.819-7.141-53.596-13.268
		l-50.441,59.245c-14.659,17.219-36.527,17.183-51.155-0.084l-50.257-59.321c-7.134,1.777-24.236,5.992-54.237,13.428h0.001
		c1.763-0.521-29.284,4.505-35.612,36.198c-1.698,8.527-8.738,43.884-14.675,73.703c-2.593,13.047,6.972,25.226,20.039,25.966
		c0.045,0.024,0.07,0.037,0.07,0.037h1.272c14.122,0,305.262,0,318.767,0c0,0,0.025-0.013,0.07-0.037
		C429.162,511.223,438.721,499.04,436.129,485.997z"/>
	<path style="fill:#3997EE;" d="M214.573,317.645h-0.039v-0.001c0.059,0.028-0.318,0.095-0.466,0.119
		c0.21,0.001,0.374,0.002,0.506,0.003L214.573,317.645L214.573,317.645z"/>
</g>
<path style="fill:#1E88D8;" d="M103.678,485.997c0,0,12.977-73.414,14.675-81.942c3.611-18.089,15.143-27.388,24.115-32
	c-7.648,1.894-13.616,3.373-16.311,4.041h0.001c1.763-0.521-29.284,4.505-35.612,36.198c-1.698,8.527-8.738,43.884-14.675,73.703
	c-2.597,13.097,7.016,25.229,20.039,25.966c0.045,0.024,0.07,0.037,0.07,0.037h1.272h26.535c0,0-0.025-0.013-0.07-0.037
	C110.693,511.226,101.081,499.091,103.678,485.997z"/>
<path style="fill:#EDB87E;" d="M303.529,355.738c-3.856-0.953-6.565-4.413-6.565-8.385c0,0,0-17.597,0-29.708h-7.496
	c-21.172,7.762-45.018,8.223-67.394,0h-7.502v30.387c0,3.576-2.433,6.693-5.902,7.56l-29.717,7.437l51.697,61.021
	c14.628,17.267,36.496,17.303,51.155,0.084l51.884-60.94L303.529,355.738z"/>
<path style="fill:#E4A970;" d="M275.737,429.98l-19.949-22.395c-8.636-9.695-13.408-22.225-13.408-35.209v-49.672
	c-6.826-0.944-13.631-2.607-20.305-5.06h-7.502v30.387c0,3.576-2.433,6.692-5.902,7.56l-29.717,7.437l51.697,61.021
	C243.373,439.066,261.568,441.043,275.737,429.98z"/>
<g>
	<path style="fill:#1E88D8;" d="M157.415,468.745c0-4.266-3.458-7.724-7.724-7.724s-7.724,3.458-7.724,7.724V512h15.448V468.745z"/>
	<path style="fill:#1E88D8;" d="M369.571,512v-43.255c0-4.266-3.458-7.724-7.724-7.724s-7.724,3.458-7.724,7.724V512H369.571z"/>
</g>
<path style="fill:#FAC149;" d="M230.651,424.049c14.628,17.267,36.496,17.303,51.155,0.084l26.905-31.6H203.95L230.651,424.049z"/>
<path style="fill:#F8A748;" d="M230.651,424.049c6.023,7.107,14.209,12.244,23.596,12.897c7.912,0.549,15.355-2.178,21.49-6.967
	c-16.702-19.708-23.93-24.281-29.354-37.446H203.95C213.327,403.601,221.304,413.017,230.651,424.049z"/>
<path style="fill:#F4C48B;" d="M171.86,195.588c-7.559-0.457-13.93,5.581-13.93,13.154V227.2
	c0,56.363,46.715,102.272,103.016,99.645c52.153-2.433,93.692-45.482,93.692-98.246v-62.898c0-6.443-4.785-11.86-11.173-12.698
	c-8.414-1.104-19.688-5.58-26.869-20.372c-1.879-3.87-7.204-4.37-9.751-0.903C291.766,152.258,248.113,200.196,171.86,195.588z"/>
<path style="fill:#EDB87E;" d="M185.737,228.599v-32.743c-4.5,0.102-9.125,0.019-13.876-0.268
	c-7.559-0.457-13.93,5.581-13.93,13.154V227.2c0,56.363,46.715,102.272,103.016,99.645c3.121-0.146,6.203-0.441,9.241-0.871
	C222.453,319.22,185.737,278.205,185.737,228.599z"/>
<g>
	<path style="fill:#EFEFEF;" d="M256,301.388h-55.283c-34.157,0-64.122-22.52-64.122-57.381v-15.829
		c0-4.266,3.458-7.724,7.724-7.724s7.724,3.458,7.724,7.724v15.829c0,25.862,22.695,41.933,48.674,41.933H256
		c4.266,0,7.724,3.458,7.724,7.724C263.724,297.931,260.266,301.388,256,301.388z"/>
	<path style="fill:#EFEFEF;" d="M369.056,170.593c-4.266,0-7.724-3.458-7.724-7.724v-21.002c0-58.74-47.699-106.873-106.416-105.845
		c-56.365,0.998-102.651,47.061-102.651,104.516v22.331c0,4.266-3.458,7.724-7.724,7.724s-7.724-3.458-7.724-7.724v-22.331
		c0-64.887,52.04-118.797,117.826-119.963c67.398-1.15,122.138,53.905,122.138,121.291v21.002
		C376.78,167.135,373.322,170.593,369.056,170.593z"/>
</g>
<path style="fill:#FAC149;" d="M382.366,168.276v65.916C411.882,222.147,411.948,180.347,382.366,168.276z"/>
<path style="fill:#F8A748;" d="M382.366,197.888v36.303c20.35-8.304,28.24-32.607,17.203-51.11
	C395.621,189.7,389.589,194.94,382.366,197.888z"/>
<path style="fill:#FAC149;" d="M130.284,168.276v65.916C100.659,222.147,100.592,180.347,130.284,168.276z"/>
<path style="fill:#F8A748;" d="M113.792,181.864c-12.184,18.594-4.43,43.821,16.492,52.327v-38.69
	C123.48,192.725,117.743,187.923,113.792,181.864z"/>
<path style="fill:#3997EE;" d="M246.723,307.053h18.613c7.511,0,13.995-5.771,14.325-13.275c0.351-7.965-6.002-14.532-13.889-14.532
	h-19.485c-7.887,0-14.241,6.567-13.89,14.532C232.728,301.282,239.212,307.053,246.723,307.053z"/>
<path style="fill:#1E88D8;" d="M256.044,293.778c-0.32-7.249,4.92-13.323,11.809-14.359c-0.681-0.102-1.371-0.173-2.081-0.173
	h-19.485c-7.887,0-14.241,6.567-13.89,14.532c0.33,7.504,6.815,13.275,14.326,13.275h18.613c0.856,0,1.695-0.084,2.516-0.228
	C261.464,305.706,256.337,300.427,256.044,293.778z"/>
<path style="fill:#F8A748;" d="M130.187,234.186v-65.905c0-7.511,5.771-13.995,13.275-14.326c7.965-0.351,14.532,6.002,14.532,13.89
	v66.777c0,7.887-6.567,14.241-14.532,13.89C135.958,248.181,130.187,241.697,130.187,234.186z"/>
<path style="fill:#F38D1A;" d="M143.462,207.831c-7.504-0.33-13.275-6.815-13.275-14.326v40.68c0,7.511,5.771,13.995,13.275,14.326
	c7.965,0.351,14.532-6.002,14.532-13.89v-40.68C157.994,201.829,151.427,208.182,143.462,207.831z"/>
<path style="fill:#F8A748;" d="M354.616,234.186v-65.905c0-7.511,5.776-13.995,13.286-14.326c7.971-0.351,14.544,6.002,14.544,13.89
	v66.777c0,7.887-6.572,14.24-14.544,13.89C360.391,248.181,354.616,241.697,354.616,234.186z"/>
<path style="fill:#F38D1A;" d="M367.901,207.831c-7.51-0.33-13.286-6.814-13.286-14.326v40.68c0,7.511,5.776,13.995,13.286,14.326
	c7.971,0.351,14.544-6.002,14.544-13.89v-40.68C382.445,201.829,375.872,208.182,367.901,207.831z"/>
<g>
</g>
<g>
</g>
<g>
</g>
<g>
</g>
<g>
</g>
<g>
</g>
<g>
</g>
<g>
</g>
<g>
</g>
<g>
</g>
<g>
</g>
<g>
</g>
<g>
</g>
<g>
</g>
<g>
</g>
</svg>
