<?xml version="1.0" encoding="iso-8859-1"?>
<!-- Generator: Adobe Illustrator 19.0.0, SVG Export Plug-In . SVG Version: 6.00 Build 0)  -->
<svg version="1.1" id="Capa_1" xmlns="http://www.w3.org/2000/svg" xmlns:xlink="http://www.w3.org/1999/xlink" x="0px" y="0px"
	 viewBox="0 0 511.99 511.99" style="enable-background:new 0 0 511.99 511.99;" xml:space="preserve">
<g>
	<path style="fill:#CFD8DC;" d="M21.319,298.667c5.891,0,10.667-4.776,10.667-10.667v-42.667c0-5.891-4.776-10.667-10.667-10.667
		s-10.667,4.776-10.667,10.667V288C10.652,293.891,15.427,298.667,21.319,298.667z"/>
	<path style="fill:#CFD8DC;" d="M42.652,341.333H31.985v-10.667c0-5.891-4.776-10.667-10.667-10.667s-10.667,4.776-10.667,10.667
		V352c0,5.891,4.776,10.667,10.667,10.667h21.333c5.891,0,10.667-4.776,10.667-10.667C53.319,346.109,48.543,341.333,42.652,341.333
		z"/>
	<path style="fill:#CFD8DC;" d="M42.652,0H21.319c-5.891,0-10.667,4.776-10.667,10.667V32c0,5.891,4.776,10.667,10.667,10.667
		S31.985,37.891,31.985,32V21.333h10.667c5.891,0,10.667-4.776,10.667-10.667S48.543,0,42.652,0z"/>
	<path style="fill:#CFD8DC;" d="M21.319,128c5.891,0,10.667-4.776,10.667-10.667V74.667C31.985,68.776,27.21,64,21.319,64
		s-10.667,4.776-10.667,10.667v42.667C10.652,123.224,15.427,128,21.319,128z"/>
	<path style="fill:#CFD8DC;" d="M127.985,341.333H85.319c-5.891,0-10.667,4.776-10.667,10.667c0,5.891,4.776,10.667,10.667,10.667
		h42.667c5.891,0,10.667-4.776,10.667-10.667C138.652,346.109,133.876,341.333,127.985,341.333z"/>
	<path style="fill:#CFD8DC;" d="M21.319,213.333c5.891,0,10.667-4.776,10.667-10.667V160c0-5.891-4.776-10.667-10.667-10.667
		S10.652,154.109,10.652,160v42.667C10.652,208.558,15.427,213.333,21.319,213.333z"/>
	<path style="fill:#CFD8DC;" d="M362.652,64c-5.891,0-10.667,4.776-10.667,10.667v42.667c0,5.891,4.776,10.667,10.667,10.667
		c5.891,0,10.667-4.776,10.667-10.667V74.667C373.319,68.776,368.543,64,362.652,64z"/>
	<path style="fill:#CFD8DC;" d="M362.652,149.333c-5.891,0-10.667,4.776-10.667,10.667v42.667c0,5.891,4.776,10.667,10.667,10.667
		c5.891,0,10.667-4.776,10.667-10.667V160C373.319,154.109,368.543,149.333,362.652,149.333z"/>
	<path style="fill:#CFD8DC;" d="M298.652,0h-42.667c-5.891,0-10.667,4.776-10.667,10.667s4.776,10.667,10.667,10.667h42.667
		c5.891,0,10.667-4.776,10.667-10.667S304.543,0,298.652,0z"/>
	<path style="fill:#CFD8DC;" d="M362.652,0h-21.333c-5.891,0-10.667,4.776-10.667,10.667s4.776,10.667,10.667,10.667h10.667V32
		c0,5.891,4.776,10.667,10.667,10.667c5.891,0,10.667-4.776,10.667-10.667V10.667C373.319,4.776,368.543,0,362.652,0z"/>
	<path style="fill:#CFD8DC;" d="M213.319,341.333h-42.667c-5.891,0-10.667,4.776-10.667,10.667c0,5.891,4.776,10.667,10.667,10.667
		h42.667c5.891,0,10.667-4.776,10.667-10.667C223.985,346.109,219.21,341.333,213.319,341.333z"/>
	<path style="fill:#CFD8DC;" d="M213.319,0h-42.667c-5.891,0-10.667,4.776-10.667,10.667s4.776,10.667,10.667,10.667h42.667
		c5.891,0,10.667-4.776,10.667-10.667S219.21,0,213.319,0z"/>
	<path style="fill:#CFD8DC;" d="M127.985,0H85.319c-5.891,0-10.667,4.776-10.667,10.667s4.776,10.667,10.667,10.667h42.667
		c5.891,0,10.667-4.776,10.667-10.667S133.876,0,127.985,0z"/>
</g>
<path style="fill:#2196F3;" d="M498.204,365.781L220.871,88.448c-4.16-4.171-10.914-4.179-15.085-0.019
	c-2.011,2.006-3.139,4.731-3.134,7.571v405.333c0.006,5.891,4.786,10.662,10.677,10.656c2.98-0.003,5.823-1.252,7.84-3.445
	L335.345,384h155.307c5.891,0.011,10.675-4.757,10.686-10.648C501.343,370.512,500.215,367.787,498.204,365.781z"/>
<g>
</g>
<g>
</g>
<g>
</g>
<g>
</g>
<g>
</g>
<g>
</g>
<g>
</g>
<g>
</g>
<g>
</g>
<g>
</g>
<g>
</g>
<g>
</g>
<g>
</g>
<g>
</g>
<g>
</g>
</svg>
